<svg width="129" height="93" viewBox="0 0 129 93" fill="none" xmlns="http://www.w3.org/2000/svg">
<path d="M122.672 0.115793C121.751 0.324566 120.808 0.856936 120.029 1.60852C119.404 2.21396 119.053 2.70457 118.143 4.22862C114.809 9.85504 111.53 16.2852 108.657 22.7989C103.766 33.8952 99.6645 45.2316 93.918 63.4679C91.1434 72.2676 90.7925 73.2384 89.7287 75.2113C89.1694 76.2552 88.2044 77.2886 87.6889 77.4139C86.702 77.6435 85.7259 76.2239 84.8267 73.2802C83.1817 67.8625 80.8897 53.9478 79.3434 40.0331C78.8389 35.555 78.4331 33.4985 77.5229 30.8576C75.5818 25.2311 72.2589 21.7655 67.6968 20.5964C66.7208 20.3459 66.4247 20.3146 64.5385 20.3146C62.2464 20.3041 61.5775 20.3981 59.8228 20.9722C56.6206 22.0369 53.8679 24.3543 51.4443 28.0287C50.5231 29.417 49.0097 32.392 48.0337 34.7094C46.4545 38.4465 44.6779 43.3839 37.3413 64.4073C35.4221 69.8876 33.6455 74.9295 33.3823 75.608C31.6167 80.1488 29.873 82.4766 28.228 82.4662C26.9778 82.4557 25.4096 81.0778 23.4137 78.2385C19.3122 72.3929 16.0551 64.1046 13.8947 54.0209C11.8549 44.5322 10.7692 34.1666 10.5718 22.2875C10.5389 20.1058 10.4621 18.0598 10.3963 17.7466C10.2647 17.0681 9.68351 15.9512 9.14615 15.3666C8.61975 14.7716 7.56696 14.1349 6.72253 13.8844C5.95486 13.6547 4.84724 13.6129 4.09054 13.78C2.40169 14.1558 0.800562 15.5545 0.219332 17.1725C0.0219332 17.7362 0 18.0494 0 21.2332C0 27.2667 0.361898 33.9892 0.997961 40.0331C2.39072 53.3111 5.0556 64.4491 9.04745 73.6455C9.99057 75.8272 12.9077 81.4014 14.0592 83.2386C17.404 88.5519 21.1875 91.5374 25.5522 92.3202C29.7524 93.0823 33.7881 92.0384 36.8258 89.4079C38.7779 87.7064 40.8177 84.627 42.3201 81.0883C42.6272 80.3576 44.5573 74.9817 46.5971 69.136C52.1023 53.3946 53.857 48.5719 56.3903 42.1731C57.9146 38.3316 58.792 36.4005 59.8009 34.6885C61.3801 32.0163 63.2115 30.273 64.4507 30.273C66.4028 30.273 67.8394 33.3733 68.5303 39.0415C68.6509 40.0436 68.9251 42.3192 69.1444 44.1042C70.2959 53.6451 73.0376 69.5223 74.4632 74.9399C76.3604 82.1113 79.453 85.9109 84.4209 87.1844C85.6492 87.4976 88.2373 87.5602 89.6739 87.3201C94.9488 86.4224 98.4143 82.9255 101.068 75.8168C101.342 75.0861 102.231 72.3616 103.042 69.7832C110.291 46.7974 114.722 34.7721 120.666 21.9221C122.332 18.3103 125.469 12.3394 127.267 9.34355C128.024 8.08047 128.726 6.78608 128.825 6.47292C129.209 5.23072 128.945 3.47703 128.2 2.3601C127.015 0.59597 124.723 -0.343507 122.672 0.115793Z" fill="black"/>
</svg>
